<svg xmlns="http://www.w3.org/2000/svg" width="142" height="48" viewBox="0 0 141.97 47.9">
<g>
<path d="M1,42.31V5.34h7.87V42.31H1Z" />
<path d="M14.89,42.31V5.34h7.13l10.4,20.18V5.34h7.66V42.31h-6.87l-10.67-20.76v20.76h-7.66Z" />
<path d="M44.36,40.89l.95-7.13c2.43,1.37,5.7,2.17,8.03,2.17,2.64,0,4.54-1,4.54-3.7,0-2.32-1.95-3.86-4.91-5.7-4.7-2.59-8.34-5.92-8.34-11.2,0-6.81,4.81-10.62,11.36-10.62,2.85,0,6.02,.63,8.93,1.85l-1,7.13c-2.69-1.27-4.86-1.85-6.92-1.85-2.38,0-4.07,1-4.07,3.43,0,2.22,1.74,3.8,4.75,5.65,4.81,2.59,8.5,5.92,8.5,11.51,0,6.65-5.02,10.56-11.83,10.56-3.59,0-7.02-.74-9.98-2.11Z" />
<path d="M85.61,29.69l-3.49-14.58h-.05l-3.49,14.58-1.48,6.28-1.53,6.34h-8.08L77.21,5.34h9.82l9.72,36.97h-8.13l-1.53-6.34-1.48-6.28Z" style="fill:#ff5151;" />
<path d="M100.13,42.31V5.34h7.87V42.31h-7.87Z" style="fill:#ff5151;" />
<path d="M134.52,5.34v7.02h-7.5v29.95h-7.87V12.37h-7.45V5.34h22.82Z" />
</g>
</svg>
